<?xml version="1.0" encoding="UTF-8"?>
<svg width="479px" height="981px" viewBox="0 0 479 981" version="1.1" xmlns="http://www.w3.org/2000/svg" xmlns:xlink="http://www.w3.org/1999/xlink">
    <!-- Generator: Sketch 48.2 (47327) - http://www.bohemiancoding.com/sketch -->
    <title>06bb107bbfa41f9a3427936c3ce74f9f</title>
    <desc>Created with Sketch.</desc>
    <defs></defs>
    <g id="Page-1" stroke="none" stroke-width="1" fill="none" fill-rule="evenodd">
        <g id="06bb107bbfa41f9a3427936c3ce74f9f" transform="translate(239.500000, 491.000000) rotate(90.000000) translate(-239.500000, -491.000000) translate(-251.000000, 252.000000)" fill="#253246" fill-rule="nonzero">
            <g id="Group" transform="translate(490.050000, 239.000000) scale(-1, 1) rotate(-180.000000) translate(-490.050000, -239.000000) ">
                <path d="M4.79,470.67 C0.58,466.08 -0.94,460.35 0.58,455.38 C1.73,451.17 116.8,347.19 255.58,224.09 C444.44,57.03 510.96,0.06 517.84,0.06 C525.11,0.06 576.72,49.38 751.43,222.56 C874.53,344.9 976.99,448.88 978.9,453.47 C983.48,464.17 973.17,477.94 960.55,477.94 C955.58,477.94 913.53,439.33 837.83,364.4 C774.74,301.7 676.49,204.21 619.53,147.63 L515.92,45.17 L271.63,261.56 C111.45,403.39 24.66,477.94 19.31,477.94 C15.11,477.94 8.23,474.5 4.79,470.67 Z" id="Shape"></path>
            </g>
        </g>
    </g>
</svg>